<svg width="232" height="232" viewBox="0 0 232 232" fill="none" xmlns="http://www.w3.org/2000/svg">
<g id="Frame" opacity="0.4" clip-path="url(#clip0_1_153)">
<path id="Vector" d="M157.849 120.042C154.612 116.802 150.721 114.249 146.373 112.58C148.89 111.206 151.146 109.471 153.173 107.442C158.666 101.944 162.066 94.3186 162.066 85.9078C162.066 74.8134 156.149 65.0936 147.288 59.7919C147.125 59.6937 146.962 59.5955 146.798 59.4973C142.352 56.9446 137.186 55.4719 131.66 55.4719H72.6143V176.594H134.44C152.716 176.594 167.526 161.768 167.526 143.474C167.526 134.343 163.799 126.064 157.849 120.075V120.042ZM139.049 78.6097C140.161 78.6097 141.044 79.4934 141.044 80.6061V91.8641C141.044 92.9768 140.161 93.8604 139.049 93.8604H137.742C136.663 93.8604 135.747 92.9768 135.747 91.8641V80.6061C135.747 79.4934 136.63 78.6097 137.742 78.6097H139.049ZM91.4136 89.2787C90.2693 89.2787 89.3538 88.3623 89.3538 87.2169V85.0242C89.3538 83.8787 90.2693 82.9624 91.4136 82.9624H91.7405V66.7299C91.7405 66.3045 92.0675 65.9772 92.4925 65.9772C92.9175 65.9772 93.2445 66.3045 93.2445 66.7299V78.217C96.3178 70.3626 103.837 64.7009 112.73 64.3736C113.155 64.3736 113.482 64.7009 113.482 65.1263C113.482 65.519 113.155 65.8463 112.763 65.8463C103.02 66.2063 94.9773 73.5044 93.506 82.9624H93.6041C94.7484 82.9624 95.6639 83.8787 95.6639 85.0242V87.2169C95.6639 88.3623 94.7484 89.2787 93.6041 89.2787H93.506C94.9773 98.7367 103.02 106.035 112.763 106.395C113.155 106.395 113.482 106.722 113.482 107.147C113.482 107.573 113.155 107.9 112.73 107.9C103.87 107.606 96.3178 101.944 93.2445 94.0568V105.544C93.2445 105.937 92.9175 106.297 92.4925 106.297C92.0675 106.297 91.7405 105.969 91.7405 105.544V89.3114H91.4136V89.2787ZM97.364 87.2496H115.052C115.575 89.2132 117.438 90.5877 119.564 90.4241C121.754 90.2605 123.52 88.3623 123.52 86.1696C123.52 83.7478 121.591 81.817 119.204 81.817C117.21 81.817 115.542 83.1588 115.052 84.9915H97.364C106.813 82.7333 119.269 75.1407 119.269 75.1407L131.366 78.1843C132.053 78.3152 132.543 78.937 132.543 79.657V92.6495C132.543 93.3695 132.053 93.9586 131.366 94.1222L119.269 97.1658C119.269 97.1658 106.813 89.5732 97.364 87.2823V87.2496ZM80.559 118.275H134.44C148.302 118.275 159.582 129.565 159.582 143.409C159.582 157.252 148.302 168.576 134.44 168.576H80.5917V118.275H80.559Z" fill="white"/>
<path id="Vector_2" d="M94.16 87.2495V85.0568C94.16 84.7623 93.8985 84.5005 93.5715 84.5005H91.4137C91.0867 84.5005 90.8252 84.7623 90.8252 85.0568V87.2495C90.8252 87.5441 91.0867 87.8059 91.4137 87.8059H93.5715C93.8985 87.8059 94.16 87.5441 94.16 87.2495Z" fill="white"/>
<path id="Vector_3" d="M96.3509 154.568C96.6124 154.274 96.7432 153.881 96.7432 153.423C96.7432 152.409 95.8931 151.558 94.8796 151.558H92.1006V157.841H95.2066C96.2201 157.841 97.0701 156.99 97.0701 155.976C97.0701 155.419 96.7759 154.863 96.3509 154.536V154.568ZM93.768 152.932H94.5527C94.8469 152.932 95.1085 153.194 95.1085 153.488C95.1085 153.783 94.8469 154.045 94.5527 154.045H93.768V152.965V152.932ZM94.8796 156.499H93.768V155.419H94.8796C95.1739 155.419 95.4354 155.681 95.4354 155.976C95.4354 156.27 95.1739 156.532 94.8796 156.532V156.499Z" fill="white"/>
<path id="Vector_4" d="M102.105 153.816H100.11V151.558H98.4429V157.841H100.11V155.452H102.105V157.841H103.772V151.558H102.105V153.816Z" fill="white"/>
<path id="Vector_5" d="M108.709 155.354C108.709 155.812 108.35 156.172 107.892 156.172C107.434 156.172 107.075 155.812 107.075 155.354V151.558H105.407V155.354C105.407 156.728 106.519 157.841 107.892 157.841C109.265 157.841 110.377 156.728 110.377 155.354V151.558H108.709V155.354Z" fill="white"/>
<path id="Vector_6" d="M113.646 151.59H112.011V157.874H113.646V151.59Z" fill="white"/>
<path id="Vector_7" d="M117.897 153.685L116.687 151.59H114.791L117.079 155.583V157.907H118.714V155.583L121.002 151.59H119.106L117.897 153.685Z" fill="white"/>
<path id="Vector_8" d="M124.304 151.59L121.362 157.874H122.997L123.389 157.056H125.972L126.364 157.874H128.031L125.056 151.59H124.304ZM124.043 155.681L124.697 154.307L125.318 155.681H124.043Z" fill="white"/>
<path id="Vector_9" d="M134.538 151.59H132.87V154.568L129.895 151.59H129.208V157.874H130.843V154.896L133.818 157.874H134.505V151.59H134.538Z" fill="white"/>
<path id="Vector_10" d="M96.3509 145.209C96.6124 144.914 96.7432 144.521 96.7432 144.063C96.7432 143.049 95.8931 142.198 94.8796 142.198H92.1006V148.481H95.2066C96.2201 148.481 97.0701 147.63 97.0701 146.649C97.0701 146.06 96.7759 145.536 96.3509 145.209ZM93.768 143.572H94.5527C94.8469 143.572 95.1085 143.834 95.1085 144.129C95.1085 144.423 94.8469 144.685 94.5527 144.685H93.768V143.605V143.572ZM94.8796 147.139H93.768V146.06H94.8796C95.1739 146.06 95.4354 146.321 95.4354 146.616C95.4354 146.91 95.1739 147.172 94.8796 147.172V147.139Z" fill="white"/>
<path id="Vector_11" d="M100.601 142.198L97.6582 148.481H99.2929L99.6853 147.663H102.268L102.66 148.481H104.328L101.353 142.198H100.601ZM100.339 146.289L100.993 144.914L101.614 146.289H100.339Z" fill="white"/>
<path id="Vector_12" d="M106.845 147.041C106.584 147.041 106.388 146.845 106.388 146.55H104.917C104.917 147.663 105.767 148.514 106.845 148.514C107.924 148.514 108.774 147.663 108.774 146.583C108.774 146.125 108.611 145.7 108.349 145.372C107.99 144.914 107.434 144.62 106.845 144.62C106.584 144.62 106.388 144.423 106.388 144.161C106.388 143.9 106.584 143.67 106.845 143.67C107.107 143.67 107.336 143.9 107.336 144.161H108.807C108.807 143.081 107.957 142.23 106.878 142.23C105.799 142.23 104.949 143.081 104.949 144.161C104.949 145.241 105.799 146.092 106.878 146.092C107.14 146.092 107.369 146.321 107.369 146.583C107.369 146.845 107.14 147.041 106.878 147.041H106.845Z" fill="white"/>
<path id="Vector_13" d="M113.45 148.514H115.117V142.23H113.45V144.489H111.455V142.23H109.788V148.514H111.455V146.125H113.45V148.514Z" fill="white"/>
<path id="Vector_14" d="M119.694 142.198H118.943L116 148.481H117.667L118.027 147.663H120.61L121.002 148.481H122.67L119.694 142.198ZM118.681 146.289L119.335 144.914L119.989 146.289H118.714H118.681Z" fill="white"/>
<path id="Vector_15" d="M128.555 144.521C128.555 143.245 127.508 142.198 126.233 142.198H123.585V148.481H125.252V146.812H126.266L127.247 148.481H129.143L127.803 146.19C128.26 145.765 128.555 145.176 128.555 144.489V144.521ZM126.266 145.405H125.252V143.605H126.266C126.756 143.605 127.181 143.998 127.181 144.521C127.181 145.045 126.789 145.405 126.266 145.405Z" fill="white"/>
<path id="Vector_16" d="M147.321 59.53H146.831C146.995 59.6282 147.158 59.7264 147.321 59.8246V59.53Z" fill="white"/>
<g id="Group">
<path id="Vector_17" d="M126.952 8.57441C127.443 9.22895 127.672 10.0144 127.606 10.8653C127.541 12.0434 127.083 12.9271 126.266 13.5816C125.448 14.2361 124.271 14.498 122.8 14.3998L117.209 14.0725L118.027 0L123.52 0.327268C124.925 0.392721 125.972 0.785442 126.691 1.4727C127.41 2.15997 127.737 3.04359 127.672 4.12357C127.606 5.00719 127.345 5.72718 126.854 6.25081C126.364 6.77444 125.743 7.10171 124.958 7.26534C125.808 7.49443 126.462 7.91988 126.952 8.60714V8.57441ZM124.5 12.0107C124.991 11.6507 125.252 11.1271 125.285 10.4071C125.318 9.68712 125.122 9.13077 124.664 8.70532C124.206 8.27987 123.552 8.05078 122.702 7.98533L119.858 7.8217L119.596 12.3053L122.473 12.4689C123.323 12.5343 124.01 12.3707 124.5 12.0107ZM119.956 6.18536L122.768 6.34899C123.552 6.38172 124.173 6.25081 124.631 5.89082C125.056 5.53082 125.318 5.03992 125.35 4.38539C125.383 3.73085 125.22 3.20722 124.795 2.8145C124.37 2.42178 123.781 2.19269 122.931 2.15997L120.217 1.99633L119.989 6.18536H119.956Z" fill="white"/>
<path id="Vector_18" d="M137.905 13.3525L132.053 12.2726L130.451 15.0871L128.064 14.6616L135.649 1.93091L138.232 2.38908L140.815 16.9525L138.428 16.527L137.905 13.3198V13.3525ZM137.578 11.5198L136.466 4.6145L133.001 10.669L137.578 11.5198Z" fill="white"/>
<path id="Vector_19" d="M151.016 18.2942C150.525 18.7524 149.904 19.0797 149.152 19.2106C148.4 19.3415 147.55 19.276 146.602 18.9815C145.687 18.6869 144.935 18.2942 144.281 17.7379C143.627 17.1815 143.234 16.5597 142.973 15.8397C142.711 15.1197 142.679 14.367 142.842 13.5816L145.163 14.3016C145.033 14.8906 145.163 15.4797 145.458 16.0361C145.752 16.5924 146.275 16.9852 147.027 17.2142C147.681 17.4106 148.269 17.4106 148.727 17.1488C149.185 16.887 149.512 16.4942 149.708 15.9379C149.871 15.447 149.839 15.0215 149.708 14.6288C149.544 14.2361 149.283 13.8761 148.956 13.5816C148.629 13.287 148.139 12.8943 147.517 12.4689C146.765 11.9452 146.177 11.4543 145.719 11.0289C145.262 10.6034 144.935 10.0798 144.738 9.45799C144.542 8.83619 144.542 8.1162 144.804 7.29803C145.033 6.57804 145.392 5.98896 145.915 5.56351C146.439 5.13806 147.092 4.87625 147.844 4.77807C148.596 4.67989 149.414 4.77807 150.264 5.03988C151.637 5.46533 152.618 6.11987 153.206 7.03622C153.795 7.95256 153.991 8.96709 153.795 10.0471L151.441 9.32709C151.506 8.80346 151.408 8.27983 151.147 7.78893C150.885 7.29803 150.395 6.97076 149.741 6.74167C149.119 6.54531 148.596 6.54531 148.139 6.74167C147.681 6.93803 147.354 7.33076 147.158 7.91984C147.027 8.37801 147.027 8.80346 147.158 9.16345C147.321 9.55617 147.55 9.88344 147.91 10.178C148.237 10.4725 148.727 10.8325 149.316 11.258C150.068 11.7816 150.689 12.2725 151.147 12.7307C151.604 13.1888 151.931 13.7125 152.16 14.3343C152.389 14.9561 152.356 15.7088 152.095 16.5597C151.898 17.2142 151.539 17.7706 151.048 18.2615L151.016 18.2942Z" fill="white"/>
<path id="Vector_20" d="M168.638 12.5671L162.851 25.4287L160.759 24.4797L163.341 18.7197L157.293 16.0034L154.71 21.7633L152.65 20.8143L158.437 7.95264L160.497 8.90171L158.078 14.3016L164.126 17.0179L166.546 11.618L168.638 12.5671Z" fill="white"/>
<path id="Vector_21" d="M173.705 28.374L168.67 25.2323L166.153 27.2613L164.093 25.985L175.798 16.9197L178.021 18.2942L175.111 32.8249L173.052 31.5485L173.738 28.374H173.705ZM174.098 26.5413L175.569 19.7015L170.109 24.0541L174.065 26.5086L174.098 26.5413Z" fill="white"/>
<path id="Vector_22" d="M181.814 38.2904L182.598 31.7123L181.356 30.6978L177.825 35.0831L176.06 33.6432L184.854 22.647L188.712 25.756C189.955 26.7705 190.674 27.8178 190.837 28.9632C191.001 30.1087 190.674 31.1559 189.857 32.1705C189.17 33.0214 188.353 33.545 187.437 33.7086C186.522 33.8723 185.541 33.6759 184.495 33.0868L183.808 39.8612L181.814 38.2576V38.2904ZM182.337 29.4214L184.299 30.9923C185.737 32.1377 186.947 32.0723 187.96 30.8287C188.451 30.2396 188.647 29.6178 188.582 28.996C188.516 28.3742 188.091 27.7851 187.372 27.196L185.41 25.6251L182.37 29.4541L182.337 29.4214Z" fill="white"/>
<path id="Vector_23" d="M199.044 47.0283C198.913 47.8465 198.554 48.5337 197.932 49.1228C197.05 49.9083 196.102 50.2355 195.088 50.1046C194.075 49.9737 193.028 49.3846 192.047 48.2719L188.288 44.1156L198.717 34.6576L202.412 38.7484C203.36 39.7957 203.85 40.8102 203.883 41.792C203.916 42.7738 203.523 43.6247 202.706 44.3774C202.052 44.9665 201.365 45.2938 200.646 45.3265C199.927 45.3265 199.24 45.1302 198.586 44.7047C199.044 45.4574 199.175 46.2429 199.077 47.061L199.044 47.0283ZM194.892 47.7483C195.513 47.8465 196.069 47.6501 196.592 47.1592C197.115 46.6683 197.377 46.1447 197.344 45.5229C197.311 44.9011 197.017 44.2793 196.429 43.6247L194.5 41.4975L191.165 44.5083L193.094 46.6356C193.682 47.2901 194.271 47.6501 194.859 47.7156L194.892 47.7483ZM195.742 40.3848L197.638 42.4793C198.161 43.0684 198.717 43.3956 199.273 43.4611C199.829 43.5265 200.352 43.3302 200.842 42.872C201.333 42.4466 201.562 41.9229 201.562 41.3666C201.562 40.8102 201.267 40.2211 200.711 39.5666L198.881 37.5375L195.775 40.352L195.742 40.3848Z" fill="white"/>
<path id="Vector_24" d="M214.148 54.13L202.607 62.2136L201.3 60.3481L206.465 56.7155L202.673 51.2828L197.507 54.9155L196.199 53.0501L207.74 44.9666L209.048 46.832L204.209 50.2356L208.002 55.6682L212.841 52.2646L214.148 54.13Z" fill="white"/>
<path id="Vector_25" d="M217.287 59.5955L209.898 63.4572C208.787 64.0463 208.1 64.7008 207.806 65.4863C207.512 66.2717 207.61 67.0899 208.068 67.9735C208.525 68.8571 209.147 69.3808 209.964 69.5771C210.781 69.7735 211.729 69.5771 212.808 69.0208L220.23 65.159L221.276 67.1881L213.855 71.0498C212.154 71.9335 210.618 72.1625 209.277 71.7371C207.937 71.3116 206.891 70.3626 206.139 68.9226C205.387 67.4826 205.223 66.1081 205.648 64.7663C206.073 63.4245 207.152 62.3118 208.852 61.4282L216.241 57.5664L217.287 59.5955Z" fill="white"/>
<path id="Vector_26" d="M223.499 72.6862L210.487 78.0861L209.604 75.9916L222.616 70.5917L223.499 72.6862Z" fill="white"/>
<path id="Vector_27" d="M228.142 86.2023L218.17 84.4678L213.299 86.0387L212.612 83.846L217.484 82.2751L224.578 75.0425L225.396 77.5624L220.165 82.6351L227.358 83.7151L228.142 86.1696V86.2023Z" fill="white"/>
<path id="Vector_28" d="M219.576 99.4238L218.465 93.5657L215.26 93.0748L214.803 90.6858L229.384 93.2058L229.875 95.7912L217.222 103.449L216.764 101.06L219.576 99.4238ZM221.178 98.4748L227.227 94.973L220.328 93.893L221.178 98.4748Z" fill="white"/>
<path id="Vector_29" d="M217.941 116.147L217.81 113.889L227.815 106.493L217.451 107.049L217.32 104.791L231.346 104.038L231.477 106.296L221.439 113.693L231.869 113.136L232 115.395L217.974 116.147H217.941Z" fill="white"/>
<path id="Vector_30" d="M228.959 142.132L220.884 140.038C219.674 139.711 218.693 139.743 217.974 140.136C217.255 140.529 216.764 141.183 216.503 142.165C216.241 143.114 216.372 143.932 216.797 144.62C217.255 145.307 218.072 145.798 219.282 146.125L227.357 148.22L226.801 150.412L218.726 148.318C216.862 147.827 215.587 146.976 214.868 145.765C214.149 144.554 214.018 143.147 214.41 141.576C214.803 140.005 215.62 138.86 216.83 138.172C218.039 137.485 219.576 137.354 221.44 137.845L229.515 139.94L228.959 142.132Z" fill="white"/>
<path id="Vector_31" d="M224.807 155.976L211.533 151.263L212.285 149.103L225.559 153.816L224.807 155.976Z" fill="white"/>
<path id="Vector_32" d="M225.559 166.743L207.12 152.998L208.002 150.969L226.442 164.714L225.592 166.743H225.559Z" fill="white"/>
<path id="Vector_33" d="M219.184 168.936L211.86 164.91C210.749 164.321 209.8 164.092 209.016 164.288C208.198 164.485 207.577 165.008 207.087 165.892C206.629 166.743 206.531 167.561 206.793 168.346C207.054 169.132 207.741 169.819 208.852 170.408L216.176 174.434L215.097 176.43L207.773 172.405C206.073 171.488 205.06 170.343 204.667 169.001C204.275 167.659 204.471 166.252 205.256 164.812C206.041 163.405 207.087 162.488 208.427 162.096C209.768 161.703 211.272 161.965 212.972 162.914L220.295 166.939L219.216 168.936H219.184Z" fill="white"/>
<path id="Vector_34" d="M196.788 178.099L202.967 178.394L200.515 172.895L202.052 170.768L205.321 178.524L213.528 178.917L211.926 181.11L205.844 180.815L208.231 186.215L206.694 188.342L203.49 180.684L195.153 180.259L196.755 178.066L196.788 178.099Z" fill="white"/>
<path id="Vector_35" d="M185.704 194.986C185.377 193.841 185.41 192.662 185.802 191.452C186.195 190.241 186.914 189.128 188.026 188.048L191.393 184.743L201.234 194.822L197.867 198.128C196.755 199.208 195.611 199.928 194.434 200.288C193.224 200.648 192.047 200.648 190.903 200.288C189.758 199.928 188.68 199.273 187.699 198.259C186.718 197.244 186.031 196.164 185.704 194.986ZM187.731 193.055C187.731 194.331 188.255 195.51 189.333 196.655C190.445 197.801 191.622 198.357 192.897 198.357C194.172 198.357 195.382 197.768 196.592 196.59L198.194 195.019L191.197 187.852L189.595 189.422C188.385 190.601 187.764 191.844 187.731 193.088V193.055Z" fill="white"/>
<path id="Vector_36" d="M186.914 205.426L184.299 202.055L180.212 205.23L179.133 203.855L183.22 200.681L180.539 197.211L175.962 200.746L174.817 199.273L181.193 194.332L189.824 205.491L183.449 210.433L182.337 208.993L186.914 205.459V205.426Z" fill="white"/>
<path id="Vector_37" d="M166.84 206.539C166.84 205.851 167.003 205.197 167.363 204.51C167.755 203.855 168.376 203.266 169.194 202.742C170.011 202.251 170.829 201.924 171.646 201.826C172.463 201.728 173.248 201.826 173.934 202.088C174.654 202.382 175.242 202.84 175.7 203.462L173.64 204.739C173.248 204.248 172.757 203.953 172.136 203.822C171.515 203.691 170.894 203.822 170.207 204.248C169.619 204.608 169.259 205.066 169.128 205.557C168.998 206.08 169.096 206.571 169.39 207.062C169.652 207.488 169.978 207.782 170.403 207.913C170.796 208.044 171.254 208.077 171.679 208.011C172.136 207.946 172.725 207.848 173.444 207.651C174.327 207.422 175.079 207.291 175.7 207.226C176.321 207.16 176.942 207.259 177.531 207.52C178.152 207.782 178.675 208.273 179.133 208.993C179.525 209.648 179.721 210.302 179.721 210.989C179.721 211.677 179.493 212.331 179.068 212.953C178.642 213.575 178.054 214.131 177.269 214.622C176.06 215.375 174.883 215.702 173.804 215.538C172.725 215.408 171.842 214.884 171.155 214L173.248 212.691C173.608 213.084 174.065 213.346 174.588 213.444C175.144 213.542 175.7 213.444 176.288 213.051C176.844 212.724 177.171 212.298 177.335 211.808C177.498 211.317 177.4 210.826 177.073 210.302C176.812 209.909 176.517 209.615 176.125 209.517C175.733 209.386 175.308 209.353 174.883 209.419C174.458 209.484 173.869 209.582 173.15 209.779C172.234 210.008 171.482 210.139 170.829 210.204C170.207 210.269 169.586 210.171 168.965 209.909C168.344 209.648 167.788 209.157 167.33 208.371C166.971 207.782 166.774 207.16 166.742 206.473L166.84 206.539Z" fill="white"/>
<path id="Vector_38" d="M168.082 219.662L161.609 207.128L163.636 206.08L170.077 218.615L168.05 219.662H168.082Z" fill="white"/>
<path id="Vector_39" d="M154.351 224.407C153.01 224.047 151.899 223.295 151.048 222.084L153.272 221.2C153.828 221.789 154.514 222.182 155.331 222.346C156.149 222.509 156.999 222.411 157.882 222.051C158.699 221.724 159.353 221.233 159.843 220.611C160.334 219.957 160.628 219.237 160.726 218.386C160.824 217.535 160.661 216.618 160.301 215.669C159.909 214.655 159.386 213.869 158.732 213.313C158.078 212.757 157.326 212.397 156.508 212.298C155.691 212.2 154.841 212.298 153.926 212.658C152.847 213.084 152.029 213.804 151.539 214.786C151.048 215.767 150.918 216.88 151.245 218.124L156.051 216.226L156.672 217.797L150.1 220.415L149.283 218.386C149.054 217.371 149.054 216.357 149.283 215.342C149.512 214.328 149.97 213.444 150.656 212.626C151.343 211.808 152.258 211.153 153.402 210.728C154.678 210.237 155.92 210.073 157.13 210.237C158.339 210.4 159.386 210.891 160.334 211.709C161.282 212.495 162.001 213.542 162.492 214.851C163.015 216.16 163.211 217.404 163.08 218.615C162.949 219.826 162.524 220.906 161.772 221.855C161.02 222.804 160.007 223.524 158.732 224.047C157.162 224.669 155.724 224.8 154.383 224.44L154.351 224.407Z" fill="white"/>
<path id="Vector_40" d="M134.407 216.422L136.63 215.898L145.719 224.407L143.3 214.295L145.523 213.771L148.825 227.451L146.602 227.975L137.513 219.433L139.965 229.578L137.742 230.102L134.439 216.422H134.407Z" fill="white"/>
<path id="Vector_41" d="M131.301 229.153L130.778 224.898L125.645 225.52L125.448 223.786L130.614 223.164L130.091 218.811L124.337 219.498L124.108 217.666L132.118 216.717L133.818 230.724L125.808 231.673L125.579 229.84L131.333 229.153H131.301Z" fill="white"/>
<path id="Vector_42" d="M114.758 217.928L118.354 223.491H119.956L119.858 217.829H122.147L122.375 231.869L117.406 231.967C115.804 231.967 114.561 231.607 113.744 230.855C112.894 230.069 112.469 229.055 112.436 227.746C112.436 226.633 112.698 225.717 113.319 225.029C113.94 224.309 114.823 223.851 115.967 223.622L112.175 217.96H114.725L114.758 217.928ZM119.989 225.062H117.471C115.64 225.127 114.725 225.946 114.758 227.582C114.758 228.367 114.987 228.956 115.444 229.382C115.902 229.807 116.589 230.004 117.537 230.004H120.054L119.989 225.062Z" fill="white"/>
<path id="Vector_43" d="M83.8612 215.964L89.5828 217.633L91.479 215.015L93.8003 215.702L84.9401 227.582L82.4227 226.862L81.3438 212.102L83.6651 212.789L83.8612 216.029V215.964ZM83.992 217.829L84.3843 224.8L88.4711 219.138L83.992 217.829Z" fill="white"/>
<path id="Vector_44" d="M77.355 212.2L72.8432 210.335L73.5297 208.698L80.134 211.415L74.7721 224.44L72.6797 223.589L77.355 212.2Z" fill="white"/>
<path id="Vector_45" d="M65.6506 204.608L66.1083 211.219L67.5468 211.971L70.1951 206.997L72.1894 208.077L65.5525 220.513L61.1714 218.157C59.7655 217.404 58.8501 216.488 58.4905 215.408C58.1308 214.328 58.2616 213.215 58.8501 212.069C59.3732 211.088 60.0598 210.433 60.9425 210.106C61.8253 209.779 62.8061 209.811 63.9504 210.171L63.3946 203.364L65.6506 204.575V204.608ZM66.7622 213.411L64.5389 212.233C62.9042 211.382 61.7272 211.644 60.9752 213.084C60.6156 213.771 60.5175 214.393 60.7137 214.982C60.9099 215.571 61.4003 216.095 62.2503 216.553L64.4735 217.731L66.7622 213.411Z" fill="white"/>
<path id="Vector_46" d="M52.4746 213.018L60.0924 201.171L61.9887 202.415L54.3709 214.262L52.4746 213.018Z" fill="white"/>
<path id="Vector_47" d="M41.5548 203.495C41.1952 202.153 41.2932 200.811 41.9144 199.47L43.778 200.942C43.5492 201.728 43.5819 202.513 43.8434 203.299C44.105 204.084 44.6281 204.771 45.3801 205.36C46.0666 205.917 46.8186 206.244 47.6033 206.342C48.388 206.44 49.2053 206.342 49.99 205.982C50.7746 205.622 51.4612 205.066 52.1151 204.248C52.769 203.397 53.194 202.546 53.3575 201.695C53.521 200.844 53.4556 200.026 53.1286 199.273C52.8017 198.488 52.2786 197.833 51.5266 197.244C50.6112 196.524 49.5976 196.164 48.486 196.23C47.3744 196.295 46.3609 196.753 45.4454 197.637L49.4996 200.844L48.4533 202.153L42.8953 197.768L44.2357 196.066C44.9877 195.346 45.8705 194.855 46.8513 194.528C47.8321 194.201 48.8457 194.168 49.8919 194.364C50.9381 194.561 51.9516 195.051 52.9325 195.804C54.0114 196.655 54.7634 197.637 55.2211 198.782C55.6788 199.928 55.7769 201.073 55.548 202.284C55.3192 203.495 54.7634 204.64 53.9133 205.72C53.0633 206.8 52.0497 207.619 50.9381 208.109C49.8265 208.6 48.6495 208.764 47.4725 208.6C46.2955 208.437 45.1512 207.913 44.0723 207.062C42.7645 206.015 41.9144 204.837 41.5548 203.495Z" fill="white"/>
<path id="Vector_48" d="M28.4116 192.106L38.5796 182.354L40.1489 184.023L35.5717 188.408L40.1489 193.186L44.7261 188.801L46.2955 190.437L36.1275 200.19L34.5582 198.553L38.8084 194.462L34.2312 189.684L29.9482 193.775L28.3789 192.106H28.4116Z" fill="white"/>
<path id="Vector_49" d="M20.4668 181.797L21.938 180.684L24.292 183.826L34.0677 176.43L35.4408 178.263L25.6652 185.659L28.0192 188.768L26.5479 189.881L20.4341 181.797H20.4668Z" fill="white"/>
<path id="Vector_50" d="M25.0112 161.768L21.7091 167.528L22.461 168.936L27.3979 166.252L28.4768 168.248L16.0856 174.925L13.7316 170.539C12.9796 169.132 12.7508 167.856 13.045 166.743C13.3393 165.63 14.0586 164.779 15.2029 164.157C16.1837 163.634 17.1318 163.47 18.0146 163.699C18.93 163.896 19.7474 164.485 20.4667 165.434L23.7688 159.478L24.9785 161.736L25.0112 161.768ZM21.0552 169.721L19.8782 167.496C18.9954 165.892 17.8511 165.467 16.4453 166.219C15.7587 166.579 15.3336 167.07 15.1702 167.659C15.0067 168.248 15.1702 168.968 15.5952 169.819L16.7722 172.045L21.0879 169.721H21.0552Z" fill="white"/>
<path id="Vector_51" d="M11.0181 160.557L14.9741 158.954L13.0125 154.143L14.6472 153.488L16.6089 158.299L20.663 156.663L18.4724 151.296L20.2052 150.609L23.2458 158.07L10.2007 163.405L7.16016 155.943L8.86027 155.256L11.0508 160.623L11.0181 160.557Z" fill="white"/>
<path id="Vector_52" d="M15.3335 140.856C15.9874 141.02 16.6086 141.347 17.1317 141.903C17.6548 142.46 18.0798 143.212 18.3414 144.161C18.6029 145.078 18.701 145.961 18.5702 146.78C18.4722 147.598 18.1779 148.318 17.7202 148.907C17.2625 149.529 16.6413 149.954 15.922 150.249L15.2354 147.925C15.7912 147.696 16.2489 147.303 16.5432 146.714C16.8374 146.158 16.8701 145.503 16.674 144.75C16.4778 144.096 16.1509 143.638 15.6931 143.376C15.2354 143.114 14.7123 143.081 14.1565 143.245C13.6661 143.376 13.3064 143.638 13.0776 143.998C12.8487 144.358 12.6852 144.75 12.6199 145.209C12.5545 145.667 12.5218 146.256 12.4891 147.009C12.4891 147.925 12.391 148.71 12.2929 149.299C12.1948 149.921 11.9333 150.478 11.5082 151.001C11.1159 151.525 10.4947 151.885 9.64465 152.147C8.92537 152.343 8.23879 152.376 7.5849 152.147C6.93101 151.95 6.37521 151.558 5.85209 150.969C5.36168 150.379 4.96934 149.659 4.74048 148.809C4.34815 147.434 4.34815 146.223 4.77318 145.241C5.1982 144.227 5.91748 143.507 6.96371 143.081L7.65029 145.438C7.15987 145.667 6.80023 146.027 6.53868 146.55C6.27712 147.074 6.27712 147.63 6.47329 148.318C6.63676 148.939 6.96371 149.365 7.35604 149.659C7.78107 149.921 8.27149 149.987 8.85999 149.823C9.31771 149.692 9.67735 149.463 9.87351 149.103C10.1024 148.776 10.2332 148.383 10.2985 147.925C10.3639 147.5 10.3966 146.878 10.4293 146.158C10.4293 145.209 10.5274 144.456 10.6255 143.834C10.7563 143.212 11.0178 142.623 11.4102 142.1C11.8352 141.576 12.4564 141.183 13.3064 140.921C13.9603 140.725 14.6469 140.692 15.3008 140.856H15.3335Z" fill="white"/>
<path id="Vector_53" d="M4.08661 137.878L8.2715 137.125L7.35605 132.02L9.08886 131.693L10.0043 136.798L14.2873 136.012L13.2738 130.318L15.1046 129.991L16.5432 137.943L2.68074 140.431L1.24219 132.511L3.04038 132.183L4.05391 137.878H4.08661Z" fill="white"/>
<path id="Vector_54" d="M14.3199 120.729L8.958 124.656L9.08878 126.26L14.7122 125.867L14.8757 128.125L0.849771 129.14L0.490132 124.198C0.359354 122.594 0.686298 121.351 1.40558 120.467C2.12486 119.584 3.13838 119.093 4.41347 118.995C5.52508 118.896 6.44053 119.158 7.1925 119.715C7.94447 120.271 8.46758 121.155 8.72914 122.3L14.1564 118.209L14.3526 120.762L14.3199 120.729ZM7.48675 126.358L7.29058 123.838C7.15981 122.005 6.27705 121.155 4.67502 121.253C3.89036 121.318 3.33455 121.58 2.90952 122.038C2.51719 122.529 2.35372 123.216 2.41911 124.165L2.61527 126.685L7.48675 126.325V126.358Z" fill="white"/>
<path id="Vector_55" d="M0.130798 114.511L11.9662 111.009L0.523132 106.395L0.65391 103.907L14.4837 109.667L14.3529 112.58L0.0327148 116.965L0.163493 114.478L0.130798 114.511Z" fill="white"/>
<path id="Vector_56" d="M3.26914 99.064L7.48673 99.7512L8.30409 94.6131L10.0369 94.9077L9.21954 100.046L13.5352 100.733L14.4507 95.0058L16.2815 95.3004L14.9738 103.253L1.07861 100.995L2.38639 93.0422L4.18459 93.3368L3.26914 99.064Z" fill="white"/>
<path id="Vector_57" d="M16.478 81.8169C17.328 82.6678 17.8838 83.7151 18.1454 84.926C18.4069 86.1696 18.3088 87.5114 17.8838 88.9841L16.576 93.5004L3.04053 89.6059L4.34831 85.0896C4.77333 83.6169 5.42722 82.406 6.27728 81.4896C7.12734 80.5733 8.14087 79.9842 9.31787 79.7224C10.4949 79.4606 11.77 79.526 13.1104 79.9188C14.4836 80.3115 15.5952 80.9333 16.4453 81.7842L16.478 81.8169ZM15.6933 84.5005C15.1048 83.3878 14.0259 82.6024 12.5219 82.1769C11.018 81.7515 9.7102 81.8496 8.59859 82.4714C7.51967 83.0933 6.735 84.2387 6.27728 85.8423L5.65609 88.0023L15.2683 90.7513L15.8895 88.5913C16.3472 86.955 16.2818 85.6132 15.6933 84.5005Z" fill="white"/>
<path id="Vector_58" d="M20.9573 64.8644C21.7746 64.668 22.5593 64.7662 23.3113 65.1262C24.3575 65.6498 25.0114 66.4026 25.3057 67.3844C25.5672 68.3989 25.4037 69.5771 24.7498 70.9189L22.2978 75.9588L9.6123 69.8061L11.999 64.8317C12.6202 63.5553 13.3722 62.7372 14.2549 62.3117C15.1377 61.919 16.0858 61.9517 17.0993 62.4426C17.9167 62.8353 18.4398 63.359 18.7341 64.0135C19.0283 64.668 19.0937 65.388 18.9302 66.1407C19.4533 65.4535 20.1072 64.9953 20.9246 64.7989L20.9573 64.8644ZM16.0858 70.428L17.3282 67.908C17.6878 67.188 17.7859 66.5662 17.6224 66.0098C17.459 65.4535 17.0993 65.0608 16.5108 64.7662C15.9223 64.4717 15.3665 64.439 14.8434 64.668C14.3203 64.8971 13.8953 65.388 13.5029 66.1407L12.3259 68.5953L16.1185 70.428H16.0858ZM23.2132 68.4643C23.0824 67.8753 22.6901 67.4171 22.0362 67.1226C21.415 66.828 20.7938 66.7953 20.238 67.0571C19.6822 67.3189 19.1918 67.8425 18.8321 68.5953L17.5898 71.1807L21.6112 73.1443L22.8536 70.5589C23.2459 69.7734 23.344 69.0862 23.2132 68.4971V68.4643Z" fill="white"/>
<path id="Vector_59" d="M21.48 48.7301L26.5149 57.5009L30.8306 60.2499L29.5882 62.1808L25.2725 59.4318L15.2026 58.5809L16.6085 56.3554L23.834 57.1409L20.0741 50.8901L21.48 48.6974V48.7301Z" fill="white"/>
<path id="Vector_60" d="M36.7486 31.4832L46.8512 40.9739L45.2819 42.643L37.6968 35.5085L42.5356 45.5557L41.1624 46.9956L30.831 42.8066L38.4161 49.941L36.8467 51.6101L26.7441 42.1194L28.6404 40.123L39.8546 44.3448L34.8851 33.4795L36.7813 31.4832H36.7486Z" fill="white"/>
<path id="Vector_61" d="M42.6662 28.6359L45.3798 31.9413L49.4012 28.6686L50.5128 30.0431L46.4914 33.3158L49.2704 36.6867L53.7496 33.0213L54.9266 34.4612L48.6819 39.5666L39.7563 28.6686L46.001 23.5632L47.178 24.9705L42.6989 28.6359H42.6662Z" fill="white"/>
<path id="Vector_62" d="M60.9099 23.2033C61.3022 21.3052 61.1714 19.8652 60.5502 18.8179C60.1906 18.1961 59.7329 17.8034 59.2097 17.6071C58.6866 17.4107 58.0981 17.5416 57.4115 17.9343C56.725 18.3598 56.3326 18.8834 56.2345 19.5707C56.1365 20.2579 56.3326 21.0106 56.7904 21.8615L54.8941 23.007C54.1421 21.567 53.9459 20.2579 54.2729 19.0798C54.5998 17.9016 55.3845 16.9198 56.5615 16.1998C57.7385 15.4798 58.8501 15.2507 59.8963 15.4798C60.9425 15.7089 61.7926 16.3634 62.4465 17.4434C62.9696 18.327 63.2312 19.3743 63.2312 20.6179C63.2312 21.8615 63.035 23.0724 62.6754 24.3488C62.283 25.5924 61.8253 26.7705 61.2695 27.8505L66.991 24.4142L67.9392 26.0178L59.5694 31.0577L58.7193 29.6178C59.7982 27.2287 60.5502 25.1015 60.9425 23.2361L60.9099 23.2033Z" fill="white"/>
<path id="Vector_63" d="M66.3369 18.8834C65.4215 16.8543 65.0618 15.0871 65.258 13.6144C65.4541 12.1416 66.4023 10.9962 68.1024 10.2435C69.8025 9.45805 71.2738 9.49078 72.5162 10.3417C73.7585 11.1598 74.8375 12.5998 75.7856 14.6289C76.7011 16.6579 77.0607 18.4252 76.8645 19.9306C76.6684 21.436 75.7202 22.5488 74.0201 23.3342C72.32 24.1196 70.8487 24.0869 69.6064 23.236C68.364 22.3851 67.2523 20.9779 66.3369 18.9161V18.8834ZM73.6932 15.5452C73.0393 14.1053 72.3527 13.058 71.6334 12.4362C70.9141 11.8144 70.0314 11.7489 68.9852 12.2071C67.9389 12.698 67.3831 13.3853 67.3831 14.3343C67.3831 15.2834 67.7101 16.4943 68.364 17.9343C69.0505 19.407 69.7371 20.4542 70.4564 21.0761C71.1757 21.6979 72.0584 21.7633 73.1047 21.3051C74.1509 20.847 74.674 20.127 74.674 19.1779C74.674 18.2288 74.347 17.0179 73.6605 15.5452H73.6932Z" fill="white"/>
<path id="Vector_64" d="M83.1417 13.1561C83.9264 11.4216 84.1553 9.94891 83.7956 8.80347C83.5668 8.11621 83.2398 7.62531 82.7494 7.33076C82.2917 7.03622 81.6705 7.0035 80.9185 7.23258C80.1339 7.4944 79.6434 7.91985 79.4146 8.54165C79.1857 9.16346 79.1857 9.94891 79.4146 10.898L77.3221 11.5852C76.9298 10.0144 76.9952 8.70529 77.6164 7.62531C78.2376 6.54532 79.1857 5.79261 80.4935 5.36716C81.8013 4.94171 82.9456 4.97444 83.8937 5.39989C84.8419 5.85806 85.5284 6.67623 85.9208 7.88712C86.2477 8.86892 86.2477 9.94891 85.9862 11.1271C85.7246 12.338 85.2342 13.4834 84.5803 14.6288C83.9264 15.7743 83.2071 16.7888 82.4225 17.7379L88.7652 15.6761L89.321 17.4433L80.0358 20.4542L79.5127 18.8506C81.1147 16.7888 82.2917 14.8906 83.1091 13.1234L83.1417 13.1561Z" fill="white"/>
<path id="Vector_65" d="M94.3563 10.2435C95.3371 8.60715 95.6967 7.16718 95.4679 5.98901C95.3371 5.26902 95.0429 4.7454 94.6178 4.41813C94.1928 4.09086 93.5716 3.99268 92.8196 4.12359C92.035 4.28722 91.4792 4.67994 91.1849 5.26902C90.8907 5.8581 90.8253 6.64355 90.956 7.62535L88.7982 8.08352C88.5693 6.47991 88.7982 5.17084 89.5175 4.15631C90.2368 3.14178 91.2503 2.48725 92.6235 2.19271C93.9639 1.93089 95.0756 2.0618 95.991 2.61816C96.9064 3.17451 97.4949 4.05813 97.7565 5.33448C97.9527 6.34901 97.8546 7.42899 97.4622 8.57443C97.0699 9.71986 96.4814 10.8326 95.6967 11.9126C94.9121 12.9925 94.0947 13.9416 93.212 14.7598L99.7509 13.418L100.143 15.2507L90.5637 17.247L90.2368 15.6107C92.035 13.7125 93.4408 11.9453 94.4217 10.3089L94.3563 10.2435Z" fill="white"/>
</g>
</g>
<defs>
<clipPath id="clip0_1_153">
<rect width="232" height="232" fill="white"/>
</clipPath>
</defs>
</svg>
