<svg xmlns="http://www.w3.org/2000/svg" xmlns:xlink="http://www.w3.org/1999/xlink" width="500"
    zoomAndPan="magnify" viewBox="0 0 375 374.999991" height="500"
    preserveAspectRatio="xMidYMid meet" version="1.0">
    <defs>
        <g />
    </defs>
    <g fill="#312f30" fill-opacity="1">
        <g transform="translate(131.789727, 140.239671)">
            <g>
                <path
                    d="M 2.234375 -16.6875 L 5.34375 -16.6875 L 5.34375 0 L 2.234375 0 Z M 2.234375 -16.6875 " />
            </g>
        </g>
    </g>
    <g fill="#312f30" fill-opacity="1">
        <g transform="translate(143.089184, 140.239671)">
            <g>
                <path
                    d="M 7.421875 0.234375 C 6.128906 0.234375 4.882812 0.0507812 3.6875 -0.3125 C 2.488281 -0.675781 1.535156 -1.160156 0.828125 -1.765625 L 1.90625 -4.171875 C 2.59375 -3.628906 3.429688 -3.1875 4.421875 -2.84375 C 5.410156 -2.507812 6.410156 -2.34375 7.421875 -2.34375 C 8.660156 -2.34375 9.582031 -2.539062 10.1875 -2.9375 C 10.800781 -3.332031 11.109375 -3.851562 11.109375 -4.5 C 11.109375 -4.976562 10.9375 -5.375 10.59375 -5.6875 C 10.25 -6 9.816406 -6.238281 9.296875 -6.40625 C 8.773438 -6.582031 8.0625 -6.785156 7.15625 -7.015625 C 5.882812 -7.316406 4.851562 -7.617188 4.0625 -7.921875 C 3.28125 -8.222656 2.601562 -8.691406 2.03125 -9.328125 C 1.46875 -9.972656 1.1875 -10.847656 1.1875 -11.953125 C 1.1875 -12.867188 1.4375 -13.703125 1.9375 -14.453125 C 2.4375 -15.210938 3.191406 -15.8125 4.203125 -16.25 C 5.210938 -16.695312 6.453125 -16.921875 7.921875 -16.921875 C 8.929688 -16.921875 9.929688 -16.796875 10.921875 -16.546875 C 11.910156 -16.296875 12.757812 -15.929688 13.46875 -15.453125 L 12.5 -13.046875 C 11.757812 -13.472656 10.992188 -13.796875 10.203125 -14.015625 C 9.410156 -14.242188 8.640625 -14.359375 7.890625 -14.359375 C 6.671875 -14.359375 5.757812 -14.148438 5.15625 -13.734375 C 4.5625 -13.316406 4.265625 -12.769531 4.265625 -12.09375 C 4.265625 -11.613281 4.4375 -11.222656 4.78125 -10.921875 C 5.125 -10.617188 5.554688 -10.378906 6.078125 -10.203125 C 6.597656 -10.023438 7.3125 -9.828125 8.21875 -9.609375 C 9.457031 -9.328125 10.472656 -9.03125 11.265625 -8.71875 C 12.066406 -8.40625 12.75 -7.929688 13.3125 -7.296875 C 13.875 -6.660156 14.15625 -5.800781 14.15625 -4.71875 C 14.15625 -3.800781 13.90625 -2.96875 13.40625 -2.21875 C 12.90625 -1.46875 12.144531 -0.867188 11.125 -0.421875 C 10.113281 0.015625 8.878906 0.234375 7.421875 0.234375 Z M 7.421875 0.234375 " />
            </g>
        </g>
    </g>
    <g fill="#312f30" fill-opacity="1">
        <g transform="translate(161.77777, 140.239671)">
            <g>
                <path
                    d="M 5.625 -14.0625 L 0.09375 -14.0625 L 0.09375 -16.6875 L 14.265625 -16.6875 L 14.265625 -14.0625 L 8.734375 -14.0625 L 8.734375 0 L 5.625 0 Z M 5.625 -14.0625 " />
            </g>
        </g>
    </g>
    <g fill="#312f30" fill-opacity="1">
        <g transform="translate(179.822786, 140.239671)">
            <g>
                <path
                    d="M 2.234375 -16.6875 L 5.34375 -16.6875 L 5.34375 0 L 2.234375 0 Z M 2.234375 -16.6875 " />
            </g>
        </g>
    </g>
    <g fill="#312f30" fill-opacity="1">
        <g transform="translate(191.122241, 140.239671)">
            <g>
                <path
                    d="M 13.0625 -3.859375 L 4.71875 -3.859375 L 3.078125 0 L -0.125 0 L 7.390625 -16.6875 L 10.4375 -16.6875 L 17.984375 0 L 14.734375 0 Z M 12.046875 -6.296875 L 8.890625 -13.59375 L 5.765625 -6.296875 Z M 12.046875 -6.296875 " />
            </g>
        </g>
    </g>
    <g fill="#312f30" fill-opacity="1">
        <g transform="translate(212.671139, 140.239671)">
            <g>
                <path
                    d="M 7.984375 -6.984375 L 5.34375 -4.265625 L 5.34375 0 L 2.234375 0 L 2.234375 -16.6875 L 5.34375 -16.6875 L 5.34375 -8.125 L 13.59375 -16.6875 L 17.078125 -16.6875 L 10.0625 -9.234375 L 17.5 0 L 13.875 0 Z M 7.984375 -6.984375 " />
            </g>
        </g>
    </g>
    <g fill="#312f30" fill-opacity="1">
        <g transform="translate(123.286084, 152.775067)">
            <g>
                <path
                    d="M 9.125 -5.71875 L 7.234375 0 L 6.109375 0 L 4.6875 -4.234375 L 3.25 0 L 2.109375 0 L 0.21875 -5.71875 L 1.328125 -5.71875 L 2.75 -1.375 L 4.21875 -5.71875 L 5.203125 -5.71875 L 6.65625 -1.34375 L 8.109375 -5.71875 Z M 9.125 -5.71875 " />
            </g>
        </g>
    </g>
    <g fill="#312f30" fill-opacity="1">
        <g transform="translate(136.271851, 152.775067)">
            <g>
                <path
                    d="M 5.0625 -0.890625 L 5.0625 0 L 0.765625 0 L 0.765625 -5.71875 L 4.9375 -5.71875 L 4.9375 -4.828125 L 1.828125 -4.828125 L 1.828125 -3.34375 L 4.59375 -3.34375 L 4.59375 -2.46875 L 1.828125 -2.46875 L 1.828125 -0.890625 Z M 5.0625 -0.890625 " />
            </g>
        </g>
    </g>
    <g fill="#312f30" fill-opacity="1">
        <g transform="translate(145.386377, 152.775067)">
            <g>
                <path
                    d="M 4.828125 -2.96875 C 5.140625 -2.863281 5.382812 -2.691406 5.5625 -2.453125 C 5.75 -2.210938 5.84375 -1.910156 5.84375 -1.546875 C 5.84375 -1.054688 5.648438 -0.675781 5.265625 -0.40625 C 4.890625 -0.132812 4.335938 0 3.609375 0 L 0.765625 0 L 0.765625 -5.71875 L 3.453125 -5.71875 C 4.128906 -5.71875 4.648438 -5.582031 5.015625 -5.3125 C 5.378906 -5.050781 5.5625 -4.691406 5.5625 -4.234375 C 5.5625 -3.953125 5.492188 -3.703125 5.359375 -3.484375 C 5.234375 -3.265625 5.054688 -3.09375 4.828125 -2.96875 Z M 1.828125 -4.890625 L 1.828125 -3.3125 L 3.328125 -3.3125 C 3.703125 -3.3125 3.988281 -3.375 4.1875 -3.5 C 4.382812 -3.632812 4.484375 -3.832031 4.484375 -4.09375 C 4.484375 -4.351562 4.382812 -4.550781 4.1875 -4.6875 C 3.988281 -4.820312 3.703125 -4.890625 3.328125 -4.890625 Z M 3.546875 -0.828125 C 4.367188 -0.828125 4.78125 -1.101562 4.78125 -1.65625 C 4.78125 -2.207031 4.367188 -2.484375 3.546875 -2.484375 L 1.828125 -2.484375 L 1.828125 -0.828125 Z M 3.546875 -0.828125 " />
            </g>
        </g>
    </g>
    <g fill="#312f30" fill-opacity="1">
        <g transform="translate(155.244116, 152.775067)">
            <g />
        </g>
    </g>
    <g fill="#312f30" fill-opacity="1">
        <g transform="translate(161.140785, 152.775067)">
            <g>
                <path
                    d="M 0.765625 -5.71875 L 3.265625 -5.71875 C 3.878906 -5.71875 4.421875 -5.597656 4.890625 -5.359375 C 5.367188 -5.128906 5.738281 -4.796875 6 -4.359375 C 6.257812 -3.921875 6.390625 -3.421875 6.390625 -2.859375 C 6.390625 -2.296875 6.257812 -1.796875 6 -1.359375 C 5.738281 -0.929688 5.367188 -0.597656 4.890625 -0.359375 C 4.421875 -0.117188 3.878906 0 3.265625 0 L 0.765625 0 Z M 3.21875 -0.90625 C 3.632812 -0.90625 4.003906 -0.984375 4.328125 -1.140625 C 4.648438 -1.296875 4.894531 -1.519531 5.0625 -1.8125 C 5.226562 -2.113281 5.3125 -2.460938 5.3125 -2.859375 C 5.3125 -3.253906 5.226562 -3.597656 5.0625 -3.890625 C 4.894531 -4.191406 4.648438 -4.421875 4.328125 -4.578125 C 4.003906 -4.742188 3.632812 -4.828125 3.21875 -4.828125 L 1.828125 -4.828125 L 1.828125 -0.90625 Z M 3.21875 -0.90625 " />
            </g>
        </g>
    </g>
    <g fill="#312f30" fill-opacity="1">
        <g transform="translate(171.529383, 152.775067)">
            <g>
                <path
                    d="M 5.0625 -0.890625 L 5.0625 0 L 0.765625 0 L 0.765625 -5.71875 L 4.9375 -5.71875 L 4.9375 -4.828125 L 1.828125 -4.828125 L 1.828125 -3.34375 L 4.59375 -3.34375 L 4.59375 -2.46875 L 1.828125 -2.46875 L 1.828125 -0.890625 Z M 5.0625 -0.890625 " />
            </g>
        </g>
    </g>
    <g fill="#312f30" fill-opacity="1">
        <g transform="translate(180.643906, 152.775067)">
            <g>
                <path
                    d="M 6 -5.71875 L 3.5 0 L 2.453125 0 L -0.046875 -5.71875 L 1.109375 -5.71875 L 3.015625 -1.3125 L 4.9375 -5.71875 Z M 6 -5.71875 " />
            </g>
        </g>
    </g>
    <g fill="#312f30" fill-opacity="1">
        <g transform="translate(190.240294, 152.775067)">
            <g>
                <path
                    d="M 5.0625 -0.890625 L 5.0625 0 L 0.765625 0 L 0.765625 -5.71875 L 4.9375 -5.71875 L 4.9375 -4.828125 L 1.828125 -4.828125 L 1.828125 -3.34375 L 4.59375 -3.34375 L 4.59375 -2.46875 L 1.828125 -2.46875 L 1.828125 -0.890625 Z M 5.0625 -0.890625 " />
            </g>
        </g>
    </g>
    <g fill="#312f30" fill-opacity="1">
        <g transform="translate(199.354817, 152.775067)">
            <g>
                <path
                    d="M 0.765625 -5.71875 L 1.828125 -5.71875 L 1.828125 -0.90625 L 4.828125 -0.90625 L 4.828125 0 L 0.765625 0 Z M 0.765625 -5.71875 " />
            </g>
        </g>
    </g>
    <g fill="#312f30" fill-opacity="1">
        <g transform="translate(207.889472, 152.775067)">
            <g>
                <path
                    d="M 3.4375 0.078125 C 2.851562 0.078125 2.328125 -0.046875 1.859375 -0.296875 C 1.390625 -0.546875 1.019531 -0.894531 0.75 -1.34375 C 0.488281 -1.800781 0.359375 -2.304688 0.359375 -2.859375 C 0.359375 -3.410156 0.488281 -3.910156 0.75 -4.359375 C 1.019531 -4.816406 1.390625 -5.171875 1.859375 -5.421875 C 2.328125 -5.671875 2.851562 -5.796875 3.4375 -5.796875 C 4.019531 -5.796875 4.546875 -5.671875 5.015625 -5.421875 C 5.484375 -5.171875 5.847656 -4.820312 6.109375 -4.375 C 6.378906 -3.925781 6.515625 -3.421875 6.515625 -2.859375 C 6.515625 -2.296875 6.378906 -1.789062 6.109375 -1.34375 C 5.847656 -0.894531 5.484375 -0.546875 5.015625 -0.296875 C 4.546875 -0.046875 4.019531 0.078125 3.4375 0.078125 Z M 3.4375 -0.84375 C 3.820312 -0.84375 4.164062 -0.925781 4.46875 -1.09375 C 4.769531 -1.269531 5.007812 -1.507812 5.1875 -1.8125 C 5.363281 -2.125 5.453125 -2.472656 5.453125 -2.859375 C 5.453125 -3.242188 5.363281 -3.585938 5.1875 -3.890625 C 5.007812 -4.203125 4.769531 -4.441406 4.46875 -4.609375 C 4.164062 -4.785156 3.820312 -4.875 3.4375 -4.875 C 3.0625 -4.875 2.71875 -4.785156 2.40625 -4.609375 C 2.101562 -4.441406 1.863281 -4.203125 1.6875 -3.890625 C 1.519531 -3.585938 1.4375 -3.242188 1.4375 -2.859375 C 1.4375 -2.472656 1.519531 -2.125 1.6875 -1.8125 C 1.863281 -1.507812 2.101562 -1.269531 2.40625 -1.09375 C 2.71875 -0.925781 3.0625 -0.84375 3.4375 -0.84375 Z M 3.4375 -0.84375 " />
            </g>
        </g>
    </g>
    <g fill="#312f30" fill-opacity="1">
        <g transform="translate(218.408745, 152.775067)">
            <g>
                <path
                    d="M 3.125 -5.71875 C 3.613281 -5.71875 4.039062 -5.632812 4.40625 -5.46875 C 4.78125 -5.3125 5.066406 -5.078125 5.265625 -4.765625 C 5.460938 -4.460938 5.5625 -4.101562 5.5625 -3.6875 C 5.5625 -3.269531 5.460938 -2.90625 5.265625 -2.59375 C 5.066406 -2.289062 4.78125 -2.054688 4.40625 -1.890625 C 4.039062 -1.734375 3.613281 -1.65625 3.125 -1.65625 L 1.828125 -1.65625 L 1.828125 0 L 0.765625 0 L 0.765625 -5.71875 Z M 3.078125 -2.546875 C 3.535156 -2.546875 3.882812 -2.644531 4.125 -2.84375 C 4.363281 -3.039062 4.484375 -3.320312 4.484375 -3.6875 C 4.484375 -4.050781 4.363281 -4.332031 4.125 -4.53125 C 3.882812 -4.726562 3.535156 -4.828125 3.078125 -4.828125 L 1.828125 -4.828125 L 1.828125 -2.546875 Z M 3.078125 -2.546875 " />
            </g>
        </g>
    </g>
    <g fill="#312f30" fill-opacity="1">
        <g transform="translate(227.98064, 152.775067)">
            <g>
                <path
                    d="M 5.0625 -0.890625 L 5.0625 0 L 0.765625 0 L 0.765625 -5.71875 L 4.9375 -5.71875 L 4.9375 -4.828125 L 1.828125 -4.828125 L 1.828125 -3.34375 L 4.59375 -3.34375 L 4.59375 -2.46875 L 1.828125 -2.46875 L 1.828125 -0.890625 Z M 5.0625 -0.890625 " />
            </g>
        </g>
    </g>
    <g fill="#312f30" fill-opacity="1">
        <g transform="translate(237.095168, 152.775067)">
            <g>
                <path
                    d="M 4.515625 0 L 3.34375 -1.671875 C 3.289062 -1.671875 3.21875 -1.671875 3.125 -1.671875 L 1.828125 -1.671875 L 1.828125 0 L 0.765625 0 L 0.765625 -5.71875 L 3.125 -5.71875 C 3.613281 -5.71875 4.039062 -5.632812 4.40625 -5.46875 C 4.78125 -5.3125 5.066406 -5.078125 5.265625 -4.765625 C 5.460938 -4.460938 5.5625 -4.101562 5.5625 -3.6875 C 5.5625 -3.257812 5.453125 -2.890625 5.234375 -2.578125 C 5.023438 -2.265625 4.726562 -2.03125 4.34375 -1.875 L 5.65625 0 Z M 4.484375 -3.6875 C 4.484375 -4.050781 4.363281 -4.332031 4.125 -4.53125 C 3.882812 -4.726562 3.535156 -4.828125 3.078125 -4.828125 L 1.828125 -4.828125 L 1.828125 -2.546875 L 3.078125 -2.546875 C 3.535156 -2.546875 3.882812 -2.644531 4.125 -2.84375 C 4.363281 -3.039062 4.484375 -3.320312 4.484375 -3.6875 Z M 4.484375 -3.6875 " />
            </g>
        </g>
    </g>
</svg>