<svg width="182" height="26" viewBox="0 0 182 26" fill="none" xmlns="http://www.w3.org/2000/svg">
<g id="Group 34">
<path id="Star 1" d="M11.9999 0.687215C12.3794 -0.229072 13.6206 -0.229072 14.0001 0.687215L16.8883 7.66014C17.0462 8.04149 17.3897 8.30278 17.785 8.34221L25.0119 9.06317C25.9615 9.15791 26.3451 10.3937 25.63 11.0548L20.1881 16.0852C19.8904 16.3604 19.7592 16.7831 19.8456 17.1888L21.4238 24.6073C21.6312 25.5822 20.6271 26.346 19.8056 25.8382L13.5542 21.9743C13.2123 21.763 12.7877 21.763 12.4458 21.9743L6.19437 25.8382C5.37289 26.346 4.36875 25.5822 4.57615 24.6073L6.15444 17.1888C6.24076 16.7831 6.10955 16.3604 5.81193 16.0852L0.370039 11.0548C-0.34506 10.3937 0.0384856 9.15791 0.988143 9.06317L8.21502 8.34221C8.61026 8.30278 8.95377 8.04149 9.11172 7.66014L11.9999 0.687215Z" fill="black"/>
<path id="Star 2" d="M50.9999 0.687215C51.3794 -0.229072 52.6206 -0.229072 53.0001 0.687215L55.8883 7.66014C56.0462 8.04149 56.3897 8.30278 56.785 8.34221L64.0119 9.06317C64.9615 9.15791 65.3451 10.3937 64.63 11.0548L59.1881 16.0852C58.8904 16.3604 58.7592 16.7831 58.8456 17.1888L60.4238 24.6073C60.6312 25.5822 59.6271 26.346 58.8056 25.8382L52.5542 21.9743C52.2123 21.763 51.7877 21.763 51.4458 21.9743L45.1944 25.8382C44.3729 26.346 43.3688 25.5822 43.5762 24.6073L45.1544 17.1888C45.2408 16.7831 45.1095 16.3604 44.8119 16.0852L39.37 11.0548C38.6549 10.3937 39.0385 9.15791 39.9881 9.06317L47.215 8.34221C47.6103 8.30278 47.9538 8.04149 48.1117 7.66014L50.9999 0.687215Z" fill="black"/>
<path id="Star 3" d="M89.9999 0.687215C90.3794 -0.229072 91.6206 -0.229072 92.0001 0.687215L94.8883 7.66014C95.0462 8.04149 95.3897 8.30278 95.785 8.34221L103.012 9.06317C103.962 9.15791 104.345 10.3937 103.63 11.0548L98.1881 16.0852C97.8904 16.3604 97.7592 16.7831 97.8456 17.1888L99.4238 24.6073C99.6312 25.5822 98.6271 26.346 97.8056 25.8382L91.5542 21.9743C91.2123 21.763 90.7877 21.763 90.4458 21.9743L84.1944 25.8382C83.3729 26.346 82.3688 25.5822 82.5762 24.6073L84.1544 17.1888C84.2408 16.7831 84.1095 16.3604 83.8119 16.0852L78.37 11.0548C77.6549 10.3937 78.0385 9.15791 78.9881 9.06317L86.215 8.34221C86.6103 8.30278 86.9538 8.04149 87.1117 7.66014L89.9999 0.687215Z" fill="black"/>
<path id="Star 4" d="M129 0.687215C129.379 -0.229072 130.621 -0.229072 131 0.687215L133.888 7.66014C134.046 8.04149 134.39 8.30278 134.785 8.34221L142.012 9.06317C142.962 9.15791 143.345 10.3937 142.63 11.0548L137.188 16.0852C136.89 16.3604 136.759 16.7831 136.846 17.1888L138.424 24.6073C138.631 25.5822 137.627 26.346 136.806 25.8382L130.554 21.9743C130.212 21.763 129.788 21.763 129.446 21.9743L123.194 25.8382C122.373 26.346 121.369 25.5822 121.576 24.6073L123.154 17.1888C123.241 16.7831 123.11 16.3604 122.812 16.0852L117.37 11.0548C116.655 10.3937 117.038 9.15791 117.988 9.06317L125.215 8.34221C125.61 8.30278 125.954 8.04149 126.112 7.66014L129 0.687215Z" fill="black"/>
<path id="Star 5" d="M168 0.687215C168.379 -0.229072 169.621 -0.229072 170 0.687215L172.888 7.66014C173.046 8.04149 173.39 8.30278 173.785 8.34221L181.012 9.06317C181.962 9.15791 182.345 10.3937 181.63 11.0548L176.188 16.0852C175.89 16.3604 175.759 16.7831 175.846 17.1888L177.424 24.6073C177.631 25.5822 176.627 26.346 175.806 25.8382L169.554 21.9743C169.212 21.763 168.788 21.763 168.446 21.9743L162.194 25.8382C161.373 26.346 160.369 25.5822 160.576 24.6073L162.154 17.1888C162.241 16.7831 162.11 16.3604 161.812 16.0852L156.37 11.0548C155.655 10.3937 156.038 9.15791 156.988 9.06317L164.215 8.34221C164.61 8.30278 164.954 8.04149 165.112 7.66014L168 0.687215Z" fill="#D9D9D9"/>
</g>
</svg>
