<svg xmlns="http://www.w3.org/2000/svg" version="1.1" xmlns:xlink="http://www.w3.org/1999/xlink" xmlns:svgjs="http://svgjs.dev/svgjs" width="2000" height="936" viewBox="0 0 2000 936"><g transform="matrix(1,0,0,1,-2.446808510638334,-1.406659090909102)"><svg viewBox="0 0 376 176" data-background-color="#ffffff" preserveAspectRatio="xMidYMid meet" height="936" width="2000" xmlns="http://www.w3.org/2000/svg" xmlns:xlink="http://www.w3.org/1999/xlink"><g id="tight-bounds" transform="matrix(1,0,0,1,0.46023999999999887,0.2647399999999891)"><svg viewBox="0 0 375.07953 175.47053" height="175.47053" width="375.07953"><g><svg></svg></g><g><svg viewBox="0 0 375.07953 175.47053" height="175.47053" width="375.07953"><g transform="matrix(1,0,0,1,-10.22024,-41.263239999999996)"><path d="M10.22 205.937v-164.674h375.08v164.674h-19.129l0-5.6h13.53v-153.475h-363.881v153.475h124.854l0 5.6z" fill="#000000" fill-rule="nonzero" stroke="none" stroke-width="1" stroke-linecap="butt" stroke-linejoin="miter" stroke-miterlimit="10" stroke-dasharray="" stroke-dashoffset="0" font-family="none" font-weight="none" font-size="none" text-anchor="none" style="mix-blend-mode: normal" data-fill-palette-color="tertiary"></path><g><path d="M160.201 190.133l3.265 14.165 0.401 2.729 0.582-2.456 4.091-14.438h2.299l3.992 14.438 0.57 2.497 0.443-2.782 3.206-14.153h2.747l-5.017 20.688h-2.484l-4.266-15.072-0.326-1.577-0.326 1.577-4.417 15.072h-2.49l-4.999-20.688zM190.346 211.106v0c-2.083 0-3.779-0.685-5.087-2.054-1.307-1.369-1.961-3.201-1.961-5.493v0-0.483c0-1.525 0.293-2.884 0.879-4.08 0.582-1.199 1.395-2.138 2.438-2.816 1.048-0.675 2.182-1.013 3.405-1.013v0c1.998 0 3.552 0.658 4.661 1.973 1.11 1.315 1.664 3.201 1.664 5.656v0 1.094h-10.416c0.039 1.513 0.481 2.737 1.326 3.672 0.85 0.931 1.928 1.397 3.236 1.397v0c0.927 0 1.713-0.188 2.357-0.564 0.644-0.38 1.208-0.883 1.693-1.508v0l1.601 1.251c-1.288 1.979-3.22 2.968-5.796 2.968zM190.02 197.326v0c-1.059 0-1.95 0.386-2.671 1.158-0.718 0.772-1.162 1.853-1.333 3.241v0h7.699v-0.197c-0.078-1.335-0.438-2.369-1.082-3.102-0.644-0.733-1.515-1.1-2.613-1.1zM212.395 203.076v0.227c0 2.351-0.539 4.238-1.617 5.662-1.079 1.428-2.528 2.142-4.348 2.141v0c-1.94 0-3.441-0.687-4.504-2.06v0l-0.128 1.775h-2.415v-21.823h2.63v8.142c1.059-1.315 2.522-1.973 4.388-1.973 1.866 0 3.333 0.704 4.4 2.112 1.063 1.412 1.595 3.344 1.594 5.797zM209.771 203.006v0c0-1.788-0.345-3.172-1.036-4.149-0.694-0.974-1.69-1.461-2.985-1.461v0c-1.734 0-2.98 0.805-3.737 2.415v0 6.646c0.803 1.614 2.058 2.421 3.766 2.421v0c1.257 0 2.237-0.489 2.938-1.467 0.702-0.974 1.053-2.442 1.054-4.405zM229.05 210.821h-5.726v-20.688h5.837c1.8 0 3.393 0.398 4.778 1.193 1.381 0.795 2.448 1.928 3.2 3.399 0.753 1.466 1.135 3.152 1.147 5.057v0 1.321c0 1.951-0.376 3.66-1.129 5.127-0.757 1.47-1.833 2.597-3.23 3.381-1.397 0.788-3.022 1.191-4.877 1.21zM229.231 192.38h-3.178v16.212h2.869c2.103 0 3.738-0.654 4.906-1.961 1.172-1.307 1.757-3.17 1.758-5.586v0-1.205c0-2.351-0.553-4.176-1.659-5.476-1.102-1.304-2.667-1.965-4.696-1.984zM248.371 211.106v0c-2.083 0-3.779-0.685-5.086-2.054-1.307-1.369-1.961-3.201-1.961-5.493v0-0.483c0-1.525 0.291-2.884 0.873-4.08 0.582-1.199 1.397-2.138 2.444-2.816 1.048-0.675 2.182-1.013 3.404-1.013v0c1.998 0 3.552 0.658 4.661 1.973 1.106 1.315 1.659 3.201 1.659 5.656v0 1.094h-10.411c0.039 1.513 0.481 2.737 1.327 3.672 0.85 0.931 1.926 1.397 3.23 1.397v0c0.931 0 1.719-0.188 2.362-0.564 0.644-0.38 1.207-0.883 1.688-1.508v0l1.606 1.251c-1.288 1.979-3.22 2.968-5.796 2.968zM248.045 197.326v0c-1.063 0-1.953 0.386-2.671 1.158-0.722 0.772-1.168 1.853-1.339 3.241v0h7.705v-0.197c-0.078-1.335-0.438-2.369-1.082-3.102-0.644-0.733-1.515-1.1-2.613-1.1zM258.386 195.446l3.911 11.808 3.806-11.808h2.682l-5.511 15.375h-2.001l-5.57-15.375zM277.509 211.106v0c-2.083 0-3.779-0.685-5.086-2.054-1.307-1.369-1.961-3.201-1.962-5.493v0-0.483c0-1.525 0.293-2.884 0.879-4.08 0.582-1.199 1.395-2.138 2.439-2.816 1.048-0.675 2.182-1.013 3.404-1.013v0c1.998 0 3.552 0.658 4.661 1.973 1.11 1.315 1.664 3.201 1.665 5.656v0 1.094h-10.417c0.039 1.513 0.481 2.737 1.327 3.672 0.85 0.931 1.928 1.397 3.235 1.397v0c0.927 0 1.713-0.188 2.357-0.564 0.644-0.38 1.208-0.883 1.694-1.508v0l1.6 1.251c-1.288 1.979-3.22 2.968-5.796 2.968zM277.183 197.326v0c-1.059 0-1.95 0.386-2.671 1.158-0.718 0.772-1.162 1.853-1.333 3.241v0h7.699v-0.197c-0.078-1.335-0.438-2.369-1.082-3.102-0.644-0.733-1.515-1.1-2.613-1.1zM289.404 188.998v21.823h-2.631v-21.823zM292.913 203.18v-0.186c0-1.505 0.295-2.859 0.884-4.062 0.594-1.207 1.418-2.136 2.474-2.787 1.055-0.652 2.262-0.978 3.619-0.978v0c2.091 0 3.783 0.724 5.075 2.171 1.296 1.451 1.944 3.379 1.943 5.784v0 0.181c0 1.498-0.287 2.842-0.861 4.032-0.574 1.187-1.393 2.112-2.456 2.776-1.067 0.663-2.293 0.995-3.677 0.995v0c-2.083 0-3.771-0.725-5.063-2.176-1.292-1.447-1.938-3.364-1.938-5.75zM295.555 203.303v0c0 1.707 0.396 3.077 1.187 4.108 0.791 1.032 1.849 1.548 3.172 1.548v0c1.338 0 2.4-0.524 3.183-1.571 0.788-1.044 1.181-2.508 1.181-4.394v0c0-1.688-0.4-3.055-1.199-4.103-0.803-1.044-1.866-1.565-3.189-1.565v0c-1.3 0-2.347 0.516-3.142 1.548-0.795 1.032-1.193 2.508-1.193 4.429zM323.185 203.064v0.239c0 2.343-0.533 4.229-1.6 5.656-1.071 1.432-2.52 2.147-4.347 2.147v0c-1.866 0-3.335-0.592-4.405-1.775v0 7.403h-2.631v-21.288h2.404l0.128 1.705c1.067-1.323 2.553-1.984 4.457-1.984v0c1.847 0 3.307 0.694 4.382 2.083 1.075 1.393 1.612 3.331 1.612 5.814zM320.561 203.006v0c0-1.734-0.37-3.102-1.112-4.103-0.737-1.005-1.75-1.507-3.037-1.507v0c-1.591 0-2.784 0.706-3.579 2.118v0 7.344c0.784 1.401 1.986 2.101 3.608 2.101v0c1.261 0 2.262-0.499 3.003-1.496 0.745-1.001 1.117-2.487 1.117-4.457zM332.904 211.106v0c-2.083 0-3.779-0.685-5.086-2.054-1.307-1.369-1.961-3.201-1.961-5.493v0-0.483c0-1.525 0.293-2.884 0.878-4.08 0.582-1.199 1.397-2.138 2.444-2.816 1.044-0.675 2.176-1.013 3.399-1.013v0c1.998 0 3.552 0.658 4.661 1.973 1.11 1.315 1.664 3.201 1.665 5.656v0 1.094h-10.417c0.039 1.513 0.481 2.737 1.327 3.672 0.85 0.931 1.928 1.397 3.235 1.397v0c0.927 0 1.713-0.188 2.357-0.564 0.644-0.38 1.208-0.883 1.694-1.508v0l1.606 1.251c-1.292 1.979-3.226 2.968-5.802 2.968zM332.578 197.326v0c-1.059 0-1.95 0.386-2.671 1.158-0.718 0.772-1.162 1.853-1.333 3.241v0h7.699v-0.197c-0.078-1.335-0.438-2.369-1.082-3.102-0.644-0.733-1.515-1.1-2.613-1.1zM349.373 195.365v2.444c-0.4-0.066-0.83-0.099-1.292-0.099v0c-1.726 0-2.896 0.733-3.509 2.2v0 10.911h-2.631v-15.375h2.561l0.041 1.781c0.861-1.373 2.083-2.06 3.666-2.06v0c0.512 0 0.9 0.066 1.164 0.198z" fill="#000000" fill-rule="nonzero" stroke="none" stroke-width="1" stroke-linecap="butt" stroke-linejoin="miter" stroke-miterlimit="10" stroke-dasharray="" stroke-dashoffset="0" font-family="none" font-weight="none" font-size="none" text-anchor="none" style="mix-blend-mode: normal" data-fill-palette-color="secondary" id="text-1"></path></g></g><g transform="matrix(1,0,0,1,29.33176499999999,56.69067632075472)"><svg viewBox="0 0 316.416 62.08917735849056" height="62.08917735849056" width="316.416"><g><svg viewBox="0 0 316.416 62.08917735849056" height="62.08917735849056" width="316.416"><g><svg viewBox="0 0 316.416 62.08917735849056" height="62.08917735849056" width="316.416"><g><svg viewBox="0 0 316.416 62.08917735849056" height="62.08917735849056" width="316.416"><g id="textblocktransform"><svg viewBox="0 0 316.416 62.08917735849056" height="62.08917735849056" width="316.416" id="textblock"><g><svg viewBox="0 0 316.416 62.08917735849056" height="62.08917735849056" width="316.416"><g transform="matrix(1,0,0,1,0,0)"><svg width="316.416" viewBox="2.25 -38.25 198.74 39" height="62.08917735849056" data-palette-color="#000000"><path d="M12.5-3.85L12.5-33.85Q12.5-34.48 12.68-34.61 12.85-34.75 13.45-34.75L13.45-34.75 17.45-34.75Q17.93-34.75 18.21-34.95 18.5-35.15 18.5-35.8L18.5-35.8 18.5-36.65Q18.5-37.23 18.34-37.36 18.18-37.5 17.6-37.5L17.6-37.5 3-37.5Q2.58-37.5 2.41-37.43 2.25-37.35 2.25-36.85L2.25-36.85 2.25-35.5Q2.25-35.1 2.44-34.93 2.63-34.75 3.1-34.75L3.1-34.75 7-34.75Q7.58-34.75 7.66-34.58 7.75-34.4 7.75-33.9L7.75-33.9 7.75-4Q7.75-3.15 7.23-2.95 6.7-2.75 6.05-2.75L6.05-2.75 3.4-2.75Q2.7-2.75 2.48-2.6 2.25-2.45 2.25-2.05L2.25-2.05 2.25-0.8Q2.25-0.33 2.49-0.16 2.73 0 3.25 0L3.25 0 17.5 0Q18.03 0 18.26-0.18 18.5-0.35 18.5-0.8L18.5-0.8 18.5-1.95Q18.5-2.3 18.4-2.53 18.3-2.75 17.95-2.75L17.95-2.75 13.45-2.75Q12.9-2.75 12.7-2.99 12.5-3.23 12.5-3.85L12.5-3.85ZM47.22-26.18L47.22-26.18Q47.27-25.55 47.32-25.4 47.37-25.25 48.05-25.25L48.05-25.25 49.15-25.25Q49.62-25.25 49.81-25.34 50-25.43 50-25.9L50-25.9 50-36.68Q50-37.18 49.89-37.34 49.77-37.5 49.3-37.5L49.3-37.5 47.7-37.5Q47.4-37.5 47.31-37.45 47.22-37.4 47.12-37.2L47.12-37.2 46.35-35.43Q46.07-34.75 45.77-34.77 45.47-34.8 45.05-35.18L45.05-35.18Q43.55-36.48 41.46-37.24 39.37-38 37-38L37-38Q34.55-38 32.37-37.39 30.2-36.77 28.53-35.5 26.87-34.23 25.93-32.3 25-30.38 25-27.75L25-27.75Q25-24.75 26.18-22.9 27.37-21.05 29.34-19.96 31.3-18.88 33.65-18.21 36-17.55 38.35-16.96 40.7-16.38 42.66-15.51 44.62-14.65 45.81-13.19 47-11.73 47-9.25L47-9.25Q47-7.53 46.03-5.8 45.07-4.08 42.98-2.94 40.9-1.8 37.5-1.8L37.5-1.8Q34.1-1.8 31.67-3.34 29.25-4.88 27.88-7.2 26.52-9.53 26.3-11.9L26.3-11.9Q26.27-12.33 26.13-12.54 26-12.75 25.5-12.75L25.5-12.75 24.45-12.75Q23.92-12.75 23.71-12.66 23.5-12.58 23.5-12.05L23.5-12.05 23.5-0.6Q23.5-0.05 23.68 0.1 23.87 0.25 24.45 0.25L24.45 0.25 25.22 0.25Q25.95 0.25 26.13 0.15 26.32 0.05 26.52-0.45L26.52-0.45 27.3-2.38Q27.6-3.13 27.82-3.18 28.05-3.23 28.6-2.73L28.6-2.73Q30.3-1.23 32.73-0.24 35.17 0.75 38 0.75L38 0.75Q42.27 0.75 45.3-0.6 48.32-1.95 49.91-4.48 51.5-7 51.5-10.5L51.5-10.5Q51.5-13.73 50.31-15.74 49.12-17.75 47.16-18.95 45.2-20.15 42.85-20.88 40.5-21.6 38.15-22.19 35.8-22.78 33.84-23.55 31.87-24.33 30.68-25.66 29.5-27 29.5-29.25L29.5-29.25Q29.5-31.85 31.32-33.65 33.15-35.45 37.5-35.45L37.5-35.45Q40.2-35.45 42.32-34.26 44.45-33.08 45.73-30.99 47.02-28.9 47.22-26.18ZM64.37-1.88L64.37-1.03Q64.37-0.33 64.58-0.16 64.8 0 65.52 0L65.52 0 80.67 0Q81.34 0 81.73-0.15 82.12-0.3 82.12-1.05L82.12-1.05 82.12-1.53Q82.12-2.3 81.97-2.53 81.82-2.75 81.07-2.75L81.07-2.75 76.97-2.75Q76.05-2.75 75.83-2.99 75.62-3.23 75.62-4.17L75.62-4.17 75.62-33.93Q75.62-34.6 75.77-34.8 75.92-35 76.57-35L76.57-35 79.12-35Q82.37-35 84.18-34.18 86-33.35 86.76-31.38 87.52-29.4 87.59-25.93L87.59-25.93Q87.62-25.33 87.75-25.04 87.87-24.75 88.57-24.75L88.57-24.75 89.17-24.75Q89.75-24.75 89.93-24.86 90.12-24.98 90.12-25.53L90.12-25.53 90.12-36.33Q90.12-37.08 89.96-37.29 89.8-37.5 89.07-37.5L89.07-37.5 57.57-37.5Q56.72-37.5 56.55-37.27 56.37-37.05 56.37-36.18L56.37-36.18 56.37-26.03Q56.37-25.48 56.48-25.11 56.6-24.75 57.22-24.75L57.22-24.75 57.92-24.75Q58.57-24.75 58.71-24.98 58.85-25.2 58.87-25.78L58.87-25.78Q58.95-29.3 59.7-31.31 60.45-33.33 62.27-34.16 64.09-35 67.37-35L67.37-35 69.77-35Q70.47-35 70.67-34.8 70.87-34.6 70.87-33.88L70.87-33.88 70.87-4.13Q70.87-3.2 70.65-2.98 70.42-2.75 69.52-2.75L69.52-2.75 65.42-2.75Q64.87-2.75 64.62-2.61 64.37-2.48 64.37-1.88L64.37-1.88ZM106.12-3.85L106.12-33.85Q106.12-34.48 106.29-34.61 106.47-34.75 107.07-34.75L107.07-34.75 111.07-34.75Q111.54-34.75 111.83-34.95 112.12-35.15 112.12-35.8L112.12-35.8 112.12-36.65Q112.12-37.23 111.96-37.36 111.79-37.5 111.22-37.5L111.22-37.5 96.62-37.5Q96.19-37.5 96.03-37.43 95.87-37.35 95.87-36.85L95.87-36.85 95.87-35.5Q95.87-35.1 96.06-34.93 96.24-34.75 96.72-34.75L96.72-34.75 100.62-34.75Q101.19-34.75 101.28-34.58 101.37-34.4 101.37-33.9L101.37-33.9 101.37-4Q101.37-3.15 100.84-2.95 100.32-2.75 99.67-2.75L99.67-2.75 97.02-2.75Q96.32-2.75 96.09-2.6 95.87-2.45 95.87-2.05L95.87-2.05 95.87-0.8Q95.87-0.33 96.11-0.16 96.34 0 96.87 0L96.87 0 111.12 0Q111.64 0 111.88-0.18 112.12-0.35 112.12-0.8L112.12-0.8 112.12-1.95Q112.12-2.3 112.02-2.53 111.92-2.75 111.57-2.75L111.57-2.75 107.07-2.75Q106.52-2.75 106.32-2.99 106.12-3.23 106.12-3.85L106.12-3.85ZM127.47-14.45L134.77-31.55Q135.04-32.2 135.17-32.18 135.29-32.15 135.56-31.4L135.56-31.4 141.77-14.9Q142.06-14.1 142.02-13.93 141.97-13.75 140.81-13.75L140.81-13.75 128.17-13.75Q127.49-13.75 127.39-13.88 127.29-14 127.47-14.45L127.47-14.45ZM114.37-2.1L114.37-1.05Q114.37-0.3 114.64-0.15 114.92 0 115.62 0L115.62 0 127.57 0Q128.17 0 128.27-0.1 128.37-0.2 128.37-0.8L128.37-0.8 128.37-2Q128.37-2.48 128.19-2.61 128.02-2.75 127.57-2.75L127.57-2.75 123.79-2.75Q122.97-2.75 122.87-3.05 122.77-3.35 123.02-3.95L123.02-3.95 125.59-10Q125.84-10.58 126.13-10.79 126.42-11 127.27-11L127.27-11 141.77-11Q142.97-11 143.19-10.75 143.42-10.5 143.74-9.65L143.74-9.65 145.99-3.65Q146.12-3.3 146.14-3.03 146.17-2.75 145.56-2.75L145.56-2.75 141.77-2.75Q141.29-2.75 141.08-2.61 140.87-2.48 140.87-1.95L140.87-1.95 140.87-0.8Q140.87-0.25 141.1-0.13 141.34 0 141.81 0L141.81 0 156.56 0Q157.14 0 157.25-0.15 157.37-0.3 157.37-0.88L157.37-0.88 157.37-1.98Q157.37-2.48 157.27-2.61 157.17-2.75 156.67-2.75L156.67-2.75 152.72-2.75Q151.87-2.75 151.72-3 151.56-3.25 151.31-3.85L151.31-3.85 137.74-37.95Q137.67-38.15 137.53-38.2 137.39-38.25 137.09-38.25L137.09-38.25 135.09-38.25Q134.84-38.25 134.74-38.21 134.64-38.18 134.56-38L134.56-38 119.74-3.75Q119.52-3.23 119.27-2.99 119.02-2.75 118.22-2.75L118.22-2.75 115.07-2.75Q114.67-2.75 114.52-2.61 114.37-2.48 114.37-2.1L114.37-2.1ZM159.24-1.95L159.24-0.95Q159.24-0.38 159.39-0.19 159.54 0 160.09 0L160.09 0 174.54 0Q175.16 0 175.33-0.19 175.49-0.38 175.49-1L175.49-1 175.49-1.8Q175.49-2.38 175.34-2.56 175.19-2.75 174.59-2.75L174.59-2.75 170.54-2.75Q169.86-2.75 169.68-2.93 169.49-3.1 169.49-3.75L169.49-3.75 169.49-10.35Q169.49-11.2 169.59-11.53 169.69-11.85 170.09-12.25L170.09-12.25 176.11-18.45Q176.61-18.98 176.94-18.95 177.26-18.93 177.74-18.3L177.74-18.3 188.76-3.75Q189.11-3.3 189-3.03 188.89-2.75 188.01-2.75L188.01-2.75 185.44-2.75Q184.79-2.75 184.64-2.54 184.49-2.33 184.49-1.65L184.49-1.65 184.49-0.85Q184.49-0.35 184.64-0.18 184.79 0 185.34 0L185.34 0 200.14 0Q200.79 0 200.89-0.11 200.99-0.23 200.99-0.85L200.99-0.85 200.99-1.75Q200.99-2.4 200.8-2.58 200.61-2.75 199.99-2.75L199.99-2.75 196.64-2.75Q195.79-2.75 195.44-2.98 195.09-3.2 194.74-3.65L194.74-3.65 180.61-21.75Q180.29-22.18 180.3-22.46 180.31-22.75 180.69-23.15L180.69-23.15 191.14-33.9Q191.56-34.33 191.96-34.54 192.36-34.75 193.29-34.75L193.29-34.75 196.74-34.75Q197.41-34.75 197.58-34.95 197.74-35.15 197.74-35.85L197.74-35.85 197.74-36.5Q197.74-37.13 197.59-37.31 197.44-37.5 196.84-37.5L196.84-37.5 183.79-37.5Q183.21-37.5 182.98-37.36 182.74-37.23 182.74-36.6L182.74-36.6 182.74-35.8Q182.74-35.18 182.9-34.96 183.06-34.75 183.74-34.75L183.74-34.75 186.69-34.75Q187.54-34.75 187.68-34.54 187.81-34.33 187.39-33.9L187.39-33.9 170.46-16.38Q169.81-15.7 169.65-15.84 169.49-15.98 169.49-17.05L169.49-17.05 169.49-33.35Q169.49-34.23 169.66-34.49 169.84-34.75 170.69-34.75L170.69-34.75 174.34-34.75Q175.01-34.75 175.25-34.91 175.49-35.08 175.49-35.8L175.49-35.8 175.49-36.75Q175.49-37.23 175.33-37.36 175.16-37.5 174.74-37.5L174.74-37.5 159.94-37.5Q159.51-37.5 159.38-37.35 159.24-37.2 159.24-36.75L159.24-36.75 159.24-35.45Q159.24-34.9 159.36-34.83 159.49-34.75 160.04-34.75L160.04-34.75 163.94-34.75Q164.54-34.75 164.64-34.65 164.74-34.55 164.74-33.95L164.74-33.95 164.74-3.9Q164.74-3.23 164.58-2.99 164.41-2.75 163.69-2.75L163.69-2.75 160.04-2.75Q159.56-2.75 159.4-2.6 159.24-2.45 159.24-1.95L159.24-1.95Z" opacity="1" transform="matrix(1,0,0,1,0,0)" fill="#000000" class="wordmark-text-0" data-fill-palette-color="primary" id="text-0"></path></svg></g></svg></g></svg></g></svg></g></svg></g></svg></g></svg></g></svg></g><defs></defs></svg><rect width="375.07953" height="175.47053" fill="none" stroke="none" visibility="hidden"></rect></g></svg></g></svg>